<?xml version="1.0" encoding="UTF-8" standalone="no"?>
<!-- Created with Inkscape (http://www.inkscape.org/) -->

<svg
   xmlns:dc="http://purl.org/dc/elements/1.1/"
   xmlns:cc="http://creativecommons.org/ns#"
   xmlns:rdf="http://www.w3.org/1999/02/22-rdf-syntax-ns#"
   xmlns:svg="http://www.w3.org/2000/svg"
   xmlns="http://www.w3.org/2000/svg"
   xmlns:sodipodi="http://sodipodi.sourceforge.net/DTD/sodipodi-0.dtd"
   xmlns:inkscape="http://www.inkscape.org/namespaces/inkscape"
   width="480"
   height="480"
   viewBox="0 0 480 480.00001"
   id="svg2"
   version="1.1"
   inkscape:version="0.91 r13725"
   sodipodi:docname="HPIMakerKlubLogo.svg">
  <title
     id="title4270">HPI Maker Klub Logo</title>
  <defs
     id="defs4">
    <mask
       maskUnits="userSpaceOnUse"
       id="mask4375">
      <path
         id="path4377"
         d="m 186.02583,558.57977 a 240,240 0 0 0 -43.94531,11.875 39.999996,39.999996 0 0 1 -16.22266,51.54492 39.999996,39.999996 0 0 1 -52.728517,-11.68164 240,240 0 0 0 -32.230468,32.11328 39.999996,39.999996 0 0 1 11.753906,52.77344 39.999996,39.999996 0 0 1 -51.41211,16.29688 240,240 0 0 0 -11.789062,43.89648 39.999996,39.999996 0 0 1 36.40625,39.80664 39.999996,39.999996 0 0 1 -36.625,39.83203 240,240 0 0 0 11.875,43.94531 39.999996,39.999996 0 0 1 18.791016,-3.73242 39.999996,39.999996 0 0 1 32.753906,19.95508 39.999996,39.999996 0 0 1 -11.681641,52.72852 240,240 0 0 0 32.113281,32.23046 39.999996,39.999996 0 0 1 33.716799,-17.10156 39.999996,39.999996 0 0 1 19.05664,5.34766 39.999996,39.999996 0 0 1 16.29688,51.41215 240,240 0 0 0 43.89648,11.789 39.999996,39.999996 0 0 1 39.80664,-36.40623 39.999996,39.999996 0 0 1 39.83203,36.62503 240,240 0 0 0 43.94531,-11.875 39.999996,39.999996 0 0 1 16.22266,-51.54495 39.999996,39.999996 0 0 1 21.88672,-5.31446 39.999996,39.999996 0 0 1 30.8418,16.9961 240,240 0 0 0 32.23046,-32.11328 39.999996,39.999996 0 0 1 -11.7539,-52.77344 39.999996,39.999996 0 0 1 35.58398,-19.98828 39.999996,39.999996 0 0 1 15.82813,3.6914 240,240 0 0 0 11.78906,-43.89648 39.999996,39.999996 0 0 1 -36.40625,-39.80664 39.999996,39.999996 0 0 1 36.625,-39.83203 240,240 0 0 0 -11.875,-43.94531 39.999996,39.999996 0 0 1 -51.54492,-16.22266 39.999996,39.999996 0 0 1 11.68164,-52.72852 240,240 0 0 0 -32.11328,-32.23046 39.999996,39.999996 0 0 1 -52.77344,11.7539 39.999996,39.999996 0 0 1 -16.29688,-51.41211 240,240 0 0 0 -43.89648,-11.78906 39.999996,39.999996 0 0 1 -39.80664,36.40625 39.999996,39.999996 0 0 1 -39.83203,-36.625 z"
         style="color:#000000;display:inline;overflow:visible;visibility:visible;opacity:1;fill:#ffffff;fill-opacity:1;fill-rule:nonzero;stroke:#000000;stroke-width:0;stroke-linecap:square;stroke-linejoin:round;stroke-miterlimit:4;stroke-dasharray:none;stroke-dashoffset:0;stroke-opacity:1;marker:none;enable-background:accumulate"
         inkscape:connector-curvature="0" />
    </mask>
  </defs>
  <sodipodi:namedview
     id="base"
     pagecolor="#ffffff"
     bordercolor="#666666"
     borderopacity="1.0"
     inkscape:pageopacity="0.0"
     inkscape:pageshadow="2"
     inkscape:zoom="0.70710678"
     inkscape:cx="219.88256"
     inkscape:cy="231.60764"
     inkscape:document-units="px"
     inkscape:current-layer="g4357"
     showgrid="false"
     units="px"
     fit-margin-top="0"
     fit-margin-left="0"
     fit-margin-right="0"
     fit-margin-bottom="0"
     inkscape:window-width="1920"
     inkscape:window-height="1005"
     inkscape:window-x="-9"
     inkscape:window-y="-9"
     inkscape:window-maximized="1"
     inkscape:snap-midpoints="true"
     inkscape:snap-smooth-nodes="true"
     inkscape:object-paths="false"
     inkscape:object-nodes="true"
     inkscape:snap-object-midpoints="true"
     inkscape:snap-intersection-paths="false" />
  <metadata
     id="metadata7">
    <rdf:RDF>
      <cc:Work
         rdf:about="">
        <dc:format>image/svg+xml</dc:format>
        <dc:type
           rdf:resource="http://purl.org/dc/dcmitype/StillImage" />
        <dc:title>HPI Maker Klub Logo</dc:title>
        <cc:license
           rdf:resource="http://creativecommons.org/licenses/by/3.0/" />
        <dc:date>21. Feb. 2016</dc:date>
        <dc:creator>
          <cc:Agent>
            <dc:title>Nicco Kunzmann</dc:title>
          </cc:Agent>
        </dc:creator>
        <dc:rights>
          <cc:Agent>
            <dc:title>Für den HPI Maker Klub</dc:title>
          </cc:Agent>
        </dc:rights>
      </cc:Work>
      <cc:License
         rdf:about="http://creativecommons.org/licenses/by/3.0/">
        <cc:permits
           rdf:resource="http://creativecommons.org/ns#Reproduction" />
        <cc:permits
           rdf:resource="http://creativecommons.org/ns#Distribution" />
        <cc:requires
           rdf:resource="http://creativecommons.org/ns#Notice" />
        <cc:requires
           rdf:resource="http://creativecommons.org/ns#Attribution" />
        <cc:permits
           rdf:resource="http://creativecommons.org/ns#DerivativeWorks" />
      </cc:License>
    </rdf:RDF>
  </metadata>
  <g
     inkscape:label="Ebene 1"
     inkscape:groupmode="layer"
     id="layer1"
     transform="translate(14.142141,-555.20477)">
    <path
       style="color:#000000;display:inline;overflow:visible;visibility:visible;opacity:1;fill:#b1073a;fill-opacity:1;fill-rule:nonzero;stroke:#000000;stroke-width:0;stroke-linecap:square;stroke-linejoin:round;stroke-miterlimit:4;stroke-dasharray:none;stroke-dashoffset:0;stroke-opacity:1;marker:none;enable-background:accumulate"
       d="M 200.16797 3.375 A 240 240 0 0 0 156.22266 15.25 A 39.999996 39.999996 0 0 1 140 66.794922 A 39.999996 39.999996 0 0 1 87.271484 55.113281 A 240 240 0 0 0 55.041016 87.226562 A 39.999996 39.999996 0 0 1 66.794922 140 A 39.999996 39.999996 0 0 1 15.382812 156.29688 A 240 240 0 0 0 3.59375 200.19336 A 39.999996 39.999996 0 0 1 40 240 A 39.999996 39.999996 0 0 1 3.375 279.83203 A 240 240 0 0 0 15.25 323.77734 A 39.999996 39.999996 0 0 1 34.041016 320.04492 A 39.999996 39.999996 0 0 1 66.794922 340 A 39.999996 39.999996 0 0 1 55.113281 392.72852 A 240 240 0 0 0 87.226562 424.95898 A 39.999996 39.999996 0 0 1 120.94336 407.85742 A 39.999996 39.999996 0 0 1 140 413.20508 A 39.999996 39.999996 0 0 1 156.29688 464.61719 A 240 240 0 0 0 200.19336 476.40625 A 39.999996 39.999996 0 0 1 240 440 A 39.999996 39.999996 0 0 1 279.83203 476.625 A 240 240 0 0 0 323.77734 464.75 A 39.999996 39.999996 0 0 1 340 413.20508 A 39.999996 39.999996 0 0 1 361.88672 407.89062 A 39.999996 39.999996 0 0 1 392.72852 424.88672 A 240 240 0 0 0 424.95898 392.77344 A 39.999996 39.999996 0 0 1 413.20508 340 A 39.999996 39.999996 0 0 1 448.78906 320.01172 A 39.999996 39.999996 0 0 1 464.61719 323.70312 A 240 240 0 0 0 476.40625 279.80664 A 39.999996 39.999996 0 0 1 440 240 A 39.999996 39.999996 0 0 1 476.625 200.16797 A 240 240 0 0 0 464.75 156.22266 A 39.999996 39.999996 0 0 1 413.20508 140 A 39.999996 39.999996 0 0 1 424.88672 87.271484 A 240 240 0 0 0 392.77344 55.041016 A 39.999996 39.999996 0 0 1 340 66.794922 A 39.999996 39.999996 0 0 1 323.70312 15.382812 A 240 240 0 0 0 279.80664 3.59375 A 39.999996 39.999996 0 0 1 240 40 A 39.999996 39.999996 0 0 1 200.16797 3.375 z "
       transform="translate(-14.142141,555.20477)"
       id="path4136" />
    <g
       id="g4357"
       mask="url(#mask4375)">
      <path
         sodipodi:nodetypes="cccc"
         style="color:#000000;display:inline;overflow:visible;visibility:visible;opacity:1;fill:#de6207;fill-opacity:1;fill-rule:nonzero;stroke:#000000;stroke-width:0;stroke-linecap:square;stroke-linejoin:round;stroke-miterlimit:4;stroke-dasharray:none;stroke-dashoffset:0;stroke-opacity:1;marker:none;enable-background:accumulate"
         d="m 245.85786,775.20477 199.99999,0 -99.99999,-173.20478 z"
         id="path4301"
         inkscape:connector-curvature="0" />
      <path
         sodipodi:nodetypes="cccccc"
         inkscape:connector-curvature="0"
         id="path4306"
         d="m 5.857864,575.20477 0,200 199.999986,0 0,-200 -99.99999,100 z"
         style="color:#000000;display:inline;overflow:visible;visibility:visible;opacity:1;fill:#f7a900;fill-opacity:1;fill-rule:nonzero;stroke:#000000;stroke-width:0;stroke-linecap:square;stroke-linejoin:round;stroke-miterlimit:4;stroke-dasharray:none;stroke-dashoffset:0;stroke-opacity:1;marker:none;enable-background:accumulate" />
      <path
         inkscape:connector-curvature="0"
         id="rect4308"
         d="m 5.857864,815.20472 0,200.00008 99.999996,0 0,-100.00009 0,-99.99999 -99.999996,0 z m 99.999996,99.99999 99.99999,99.99839 0,-199.99838 -99.99999,99.99999 z"
         style="color:#000000;display:inline;overflow:visible;visibility:visible;opacity:1;fill:#de6207;fill-opacity:1;fill-rule:nonzero;stroke:#000000;stroke-width:0;stroke-linecap:square;stroke-linejoin:round;stroke-miterlimit:4;stroke-dasharray:none;stroke-dashoffset:0;stroke-opacity:1;marker:none;enable-background:accumulate" />
      <path
         id="path4326"
         d="m 345.85784,815.20477 a 99.999973,99.999974 0 0 0 -99.99998,99.99998 99.999973,99.999974 0 0 0 99.99998,100.00005 99.999973,99.999974 0 0 0 24.92675,-3.2357 l -48.1315,-83.36754 23.20475,-13.39681 -23.20475,-13.3968 48.10709,-83.32355 a 99.999973,99.999974 0 0 0 -24.90234,-3.27962 z"
         style="color:#000000;display:inline;overflow:visible;visibility:visible;opacity:1;fill:#f7a900;fill-opacity:1;fill-rule:nonzero;stroke:#000000;stroke-width:0;stroke-linecap:square;stroke-linejoin:round;stroke-miterlimit:4;stroke-dasharray:none;stroke-dashoffset:0;stroke-opacity:1;marker:none;enable-background:accumulate"
         inkscape:connector-curvature="0" />
    </g>
  </g>
</svg>
