<?xml version="1.0" encoding="UTF-8" standalone="no"?>
<!-- Created with Inkscape (http://www.inkscape.org/) -->

<svg
   xmlns:dc="http://purl.org/dc/elements/1.1/"
   xmlns:cc="http://creativecommons.org/ns#"
   xmlns:rdf="http://www.w3.org/1999/02/22-rdf-syntax-ns#"
   xmlns:svg="http://www.w3.org/2000/svg"
   xmlns="http://www.w3.org/2000/svg"
   xmlns:sodipodi="http://sodipodi.sourceforge.net/DTD/sodipodi-0.dtd"
   xmlns:inkscape="http://www.inkscape.org/namespaces/inkscape"
   width="480"
   height="480"
   viewBox="0 0 480 480.00001"
   id="svg2"
   version="1.1"
   inkscape:version="0.91 r13725"
   sodipodi:docname="HPIMakerKlubLogo.svg">
  <title
     id="title4270">HPI Maker Klub Logo</title>
  <defs
     id="defs4">
    <mask
       maskUnits="userSpaceOnUse"
       id="mask4166">
      <path
         style="color:#000000;display:inline;overflow:visible;visibility:visible;opacity:1;fill:#ffffff;fill-opacity:1;fill-rule:nonzero;stroke:#000000;stroke-width:0;stroke-linecap:square;stroke-linejoin:round;stroke-miterlimit:4;stroke-dasharray:none;stroke-dashoffset:0;stroke-opacity:1;marker:none;enable-background:accumulate"
         d="m 186.02583,558.57977 a 240,240 0 0 0 -43.94531,11.875 39.999996,39.999996 0 0 1 -16.22266,51.54492 39.999996,39.999996 0 0 1 -52.728517,-11.68164 240,240 0 0 0 -32.230468,32.11328 39.999996,39.999996 0 0 1 11.753906,52.77344 39.999996,39.999996 0 0 1 -51.41211,16.29688 240,240 0 0 0 -11.789062,43.89648 39.999996,39.999996 0 0 1 36.40625,39.80664 39.999996,39.999996 0 0 1 -36.625,39.83203 240,240 0 0 0 11.875,43.94531 39.999996,39.999996 0 0 1 18.791016,-3.73242 39.999996,39.999996 0 0 1 32.753906,19.95508 39.999996,39.999996 0 0 1 -11.681641,52.72852 240,240 0 0 0 32.113281,32.23046 39.999996,39.999996 0 0 1 33.716799,-17.10156 39.999996,39.999996 0 0 1 19.05664,5.34766 39.999996,39.999996 0 0 1 16.29688,51.41215 240,240 0 0 0 43.89648,11.789 39.999996,39.999996 0 0 1 39.80664,-36.40623 39.999996,39.999996 0 0 1 39.83203,36.62503 240,240 0 0 0 43.94531,-11.875 39.999996,39.999996 0 0 1 16.22266,-51.54495 39.999996,39.999996 0 0 1 21.88672,-5.31446 39.999996,39.999996 0 0 1 30.8418,16.9961 240,240 0 0 0 32.23046,-32.11328 39.999996,39.999996 0 0 1 -11.7539,-52.77344 39.999996,39.999996 0 0 1 35.58398,-19.98828 39.999996,39.999996 0 0 1 15.82813,3.6914 240,240 0 0 0 11.78906,-43.89648 39.999996,39.999996 0 0 1 -36.40625,-39.80664 39.999996,39.999996 0 0 1 36.625,-39.83203 240,240 0 0 0 -11.875,-43.94531 39.999996,39.999996 0 0 1 -51.54492,-16.22266 39.999996,39.999996 0 0 1 11.68164,-52.72852 240,240 0 0 0 -32.11328,-32.23046 39.999996,39.999996 0 0 1 -52.77344,11.7539 39.999996,39.999996 0 0 1 -16.29688,-51.41211 240,240 0 0 0 -43.89648,-11.78906 39.999996,39.999996 0 0 1 -39.80664,36.40625 39.999996,39.999996 0 0 1 -39.83203,-36.625 z"
         id="path4168"
         inkscape:label="#path4136"
         inkscape:connector-curvature="0" />
    </mask>
  </defs>
  <sodipodi:namedview
     id="base"
     pagecolor="#ffffff"
     bordercolor="#666666"
     borderopacity="1.0"
     inkscape:pageopacity="0.0"
     inkscape:pageshadow="2"
     inkscape:zoom="1.4142136"
     inkscape:cx="329.37539"
     inkscape:cy="200.15707"
     inkscape:document-units="px"
     inkscape:current-layer="layer1"
     showgrid="false"
     units="px"
     fit-margin-top="0"
     fit-margin-left="0"
     fit-margin-right="0"
     fit-margin-bottom="0"
     inkscape:window-width="1920"
     inkscape:window-height="1053"
     inkscape:window-x="-9"
     inkscape:window-y="1071"
     inkscape:window-maximized="1"
     inkscape:snap-midpoints="true"
     inkscape:snap-smooth-nodes="false"
     inkscape:object-paths="false"
     inkscape:object-nodes="false"
     inkscape:snap-object-midpoints="true"
     inkscape:snap-intersection-paths="false" />
  <metadata
     id="metadata7">
    <rdf:RDF>
      <cc:Work
         rdf:about="">
        <dc:format>image/svg+xml</dc:format>
        <dc:type
           rdf:resource="http://purl.org/dc/dcmitype/StillImage" />
        <dc:title>HPI Maker Klub Logo</dc:title>
        <cc:license
           rdf:resource="http://creativecommons.org/licenses/by/3.0/" />
        <dc:date>21. Feb. 2016</dc:date>
        <dc:creator>
          <cc:Agent>
            <dc:title>Nicco Kunzmann</dc:title>
          </cc:Agent>
        </dc:creator>
        <dc:rights>
          <cc:Agent>
            <dc:title>Für den HPI Maker Klub</dc:title>
          </cc:Agent>
        </dc:rights>
      </cc:Work>
      <cc:License
         rdf:about="http://creativecommons.org/licenses/by/3.0/">
        <cc:permits
           rdf:resource="http://creativecommons.org/ns#Reproduction" />
        <cc:permits
           rdf:resource="http://creativecommons.org/ns#Distribution" />
        <cc:requires
           rdf:resource="http://creativecommons.org/ns#Notice" />
        <cc:requires
           rdf:resource="http://creativecommons.org/ns#Attribution" />
        <cc:permits
           rdf:resource="http://creativecommons.org/ns#DerivativeWorks" />
      </cc:License>
    </rdf:RDF>
  </metadata>
  <g
     inkscape:label="Ebene 1"
     inkscape:groupmode="layer"
     id="layer1"
     transform="translate(14.142141,-555.20477)">
    <g
       id="g4154"
       mask="url(#mask4166)">
      <rect
         y="555.20477"
         x="-14.142145"
         height="480"
         width="480"
         id="rect4152"
         style="color:#000000;display:inline;overflow:visible;visibility:visible;opacity:1;fill:#b1073a;fill-opacity:1;fill-rule:nonzero;stroke:#000000;stroke-width:0;stroke-linecap:square;stroke-linejoin:round;stroke-miterlimit:4;stroke-dasharray:none;stroke-dashoffset:0;stroke-opacity:1;marker:none;enable-background:accumulate" />
      <g
         mask="none"
         id="g4357">
        <path
           inkscape:connector-curvature="0"
           id="path4301"
           d="m 245.85786,775.20477 199.99999,0 -99.99999,-173.20478 z"
           style="color:#000000;display:inline;overflow:visible;visibility:visible;opacity:1;fill:#de6207;fill-opacity:1;fill-rule:nonzero;stroke:#000000;stroke-width:0;stroke-linecap:square;stroke-linejoin:round;stroke-miterlimit:4;stroke-dasharray:none;stroke-dashoffset:0;stroke-opacity:1;marker:none;enable-background:accumulate"
           sodipodi:nodetypes="cccc" />
        <path
           style="color:#000000;display:inline;overflow:visible;visibility:visible;opacity:1;fill:#f7a900;fill-opacity:1;fill-rule:nonzero;stroke:#000000;stroke-width:0;stroke-linecap:square;stroke-linejoin:round;stroke-miterlimit:4;stroke-dasharray:none;stroke-dashoffset:0;stroke-opacity:1;marker:none;enable-background:accumulate"
           d="m 5.857864,575.20477 0,200 199.999986,0 0,-200 -99.99999,100 z"
           id="path4306"
           inkscape:connector-curvature="0"
           sodipodi:nodetypes="cccccc" />
        <path
           style="color:#000000;display:inline;overflow:visible;visibility:visible;opacity:1;fill:#de6207;fill-opacity:1;fill-rule:nonzero;stroke:#000000;stroke-width:0;stroke-linecap:square;stroke-linejoin:round;stroke-miterlimit:4;stroke-dasharray:none;stroke-dashoffset:0;stroke-opacity:1;marker:none;enable-background:accumulate"
           d="m 5.857864,815.20472 0,200.00008 99.999996,0 0,-100.00009 0,-99.99999 -99.999996,0 z m 99.999996,99.99999 99.99999,99.99839 0,-199.99838 -99.99999,99.99999 z"
           id="rect4308"
           inkscape:connector-curvature="0" />
        <path
           inkscape:connector-curvature="0"
           style="color:#000000;display:inline;overflow:visible;visibility:visible;opacity:1;fill:#f7a900;fill-opacity:1;fill-rule:nonzero;stroke:#000000;stroke-width:0;stroke-linecap:square;stroke-linejoin:round;stroke-miterlimit:4;stroke-dasharray:none;stroke-dashoffset:0;stroke-opacity:1;marker:none;enable-background:accumulate"
           d="m 345.85784,815.20477 a 99.999973,99.999974 0 0 0 -99.99998,99.99998 99.999973,99.999974 0 0 0 99.99998,100.00005 99.999973,99.999974 0 0 0 24.92675,-3.2357 l -48.1315,-83.36754 23.20475,-13.39681 -23.20475,-13.3968 48.10709,-83.32355 a 99.999973,99.999974 0 0 0 -24.90234,-3.27962 z"
           id="path4326" />
      </g>
    </g>
  </g>
</svg>
